<svg focusable="false" aria-hidden="true" xmlns="http://www.w3.org/2000/svg" viewBox="0 0 192.15 83.26"><g data-name="Calque 2"><g data-name="Calque 1"><path d="M187.06 61.16C171 60 151 59 129.22 59c-33.4 0-71.12 2.29-105.53 9.41-5.76-7.27-12.78-13-23.54-17.51l-.15.29c9.51 10.34 15.59 19.28 19.91 32.07 48.21-18 108.76-21.32 154.46-21.32 4.37 0 8.54.06 12.58.1z" fill="#4e6b7c"></path><path d="M136.87 28.47a16.68 16.68 0 0 0 .47-3.73c0-2.81-1.78-4-3.64-4-3.08 0-4.67 1.83-5.4 7.69zM76 42.61a6.84 6.84 0 0 1-3.89 1.46c-3 0-3.37-2.5-3.37-5.45 0-3.48.93-9.67 2-12.12 1.56-3.74 3.69-4.78 7.12-4.78a4.22 4.22 0 0 1 .72.06zm100.71-8.52c-1.1 10.08-2.61 12.16-5.51 12.16-2.64 0-3.69-1.93-3.69-6.14a63.58 63.58 0 0 1 .53-7c1.1-10.11 2.6-12.11 5.5-12.11 2.65 0 3.7 1.91 3.7 6.12a66.14 66.14 0 0 1-.52 7m-69 19.12H93.26L99.82 0h14.44zM137.07 44a39.71 39.71 0 0 0 9.93-1.59l-1.77 9.66a58.8 58.8 0 0 1-13.36 1.45c-14.59 0-18.65-6.34-18.65-14.66 0-21.25 9.15-26.08 21.72-26.08 9.87 0 16 4.78 16 13.93a43.93 43.93 0 0 1-1.38 10.08h-21.79c0 4.57 1.5 7.18 9.3 7.18M80.28 13.1c-10.08 0-15.53 1.92-20 6.65-4.21 4.48-6.44 12.36-6.44 20.74 0 7.27 1.82 13.3 10.8 13.3 4.11 0 7.69-1.56 11-3.49h.16l-.37 2.91h13.74L94 13.35c-4-.16-8.61-.25-13.76-.25m111.91 14.13c0-10.29-6.66-14.45-17.83-14.45-13.5 0-21.72 6.2-21.72 27.19 0 10.28 6.66 14.45 17.84 14.45 13.49 0 21.71-6 21.71-27.19M48.9 0a224.87 224.87 0 0 1-13.78 37.47H35C33.47 27.29 32.68 12.64 32.68 0H16c.51 20 4 37.57 7.9 53.21H40A336.68 336.68 0 0 0 64.17 0z" fill="#82e600"></path></g></g></svg>